<?xml version="1.0" encoding="utf-8"?>
<!-- Generator: Adobe Illustrator 22.1.0, SVG Export Plug-In . SVG Version: 6.00 Build 0)  -->
<svg version="1.1" baseProfile="basic" id="Layer_1"
	 xmlns="http://www.w3.org/2000/svg" xmlns:xlink="http://www.w3.org/1999/xlink" x="0px" y="0px" width="90px" height="90px"
	 viewBox="0 0 90 90" xml:space="preserve">
<g>
	<path d="M2.002,90c-0.53,0-1.039-0.21-1.414-0.586c-0.387-0.387-0.599-0.916-0.585-1.464l0.258-10.38
		c0.013-0.513,0.222-1.002,0.585-1.364l8.785-8.785c0.375-0.375,0.884-0.586,1.414-0.586c0.002,0,0.004,0,0.006,0l6.058,0.018
		l-0.018-6.058c-0.001-0.532,0.209-1.044,0.586-1.42s0.919-0.598,1.42-0.586l6.058,0.018l-0.018-6.059
		c-0.001-0.532,0.209-1.044,0.586-1.42l12.342-12.342l-6.542-6.542c-2.898-2.898-2.898-7.614,0-10.512L51.278,2.177
		C52.683,0.773,54.549,0,56.534,0c1.986,0,3.853,0.773,5.256,2.177l26.035,26.034c2.897,2.898,2.897,7.614,0,10.512L68.069,58.479
		c-2.898,2.899-7.614,2.897-10.511,0L45.955,46.875L35.562,57.269c-0.78,0.781-2.047,0.781-2.828,0
		c-0.781-0.781-0.781-2.047,0-2.828l11.807-11.808c0.75-0.75,2.078-0.75,2.828,0L60.387,55.65c1.296,1.297,3.558,1.298,4.854,0
		l19.756-19.755c1.338-1.338,1.338-3.517,0-4.855L58.962,5.005c-1.297-1.297-3.559-1.296-4.855,0L34.352,24.76
		c-1.338,1.338-1.338,3.517,0,4.855l7.956,7.956c0.375,0.375,0.586,0.884,0.586,1.414s-0.211,1.039-0.586,1.414L29.14,53.568
		l0.021,7.238c0.001,0.532-0.209,1.044-0.586,1.42c-0.375,0.375-0.884,0.586-1.414,0.586c-0.002,0-0.004,0-0.006,0l-6.058-0.018
		l0.018,6.058c0.001,0.532-0.209,1.044-0.586,1.42c-0.376,0.377-0.868,0.613-1.42,0.586l-7.238-0.021L4.24,78.469l-0.186,7.479
		l7.479-0.186l32.59-32.59c0.78-0.782,2.048-0.78,2.829,0l3.516,3.516c0.781,0.78,0.781,2.047,0,2.828s-2.047,0.781-2.828,0
		l-2.102-2.102L13.796,89.156c-0.363,0.363-0.851,0.572-1.364,0.585l-10.38,0.258C2.035,90,2.018,90,2.002,90z"/>
	<path d="M70.964,38.613c-1.051,0-2.101-0.4-2.9-1.2L52.589,21.938c0,0,0,0-0.001,0c-1.598-1.599-1.598-4.201,0-5.799l2.932-2.931
		c1.6-1.6,4.201-1.598,5.801,0l15.475,15.475c1.599,1.599,1.599,4.2,0.001,5.799l-2.933,2.932
		C73.063,38.213,72.014,38.613,70.964,38.613z M55.417,19.11l15.475,15.475c0.034,0.034,0.111,0.033,0.144,0l2.932-2.932
		c0.039-0.039,0.039-0.104,0-0.143L58.492,16.036c-0.041-0.04-0.104-0.041-0.145,0l-2.931,2.93
		C55.378,19.006,55.378,19.071,55.417,19.11L55.417,19.11z"/>
	<path d="M8.773,83.229c-0.512,0-1.024-0.195-1.414-0.586c-0.781-0.781-0.781-2.047,0-2.828l4.979-4.979
		c0.78-0.781,2.048-0.781,2.828,0c0.781,0.781,0.781,2.047,0,2.828l-4.979,4.979C9.797,83.033,9.285,83.229,8.773,83.229z"/>
</g>
<g>
</g>
<g>
</g>
<g>
</g>
<g>
</g>
<g>
</g>
<g>
</g>
</svg>
